<svg width="26" height="22" viewBox="0 0 26 22" fill="none" xmlns="http://www.w3.org/2000/svg">
<path fill-rule="evenodd" clip-rule="evenodd" d="M3.87202 0.39296C4.0612 0.145299 4.35504 0 4.66669 0H21.3334C21.645 0 21.9388 0.145299 22.128 0.39296L25.7947 5.19296C25.9279 5.3673 26 5.58061 26 5.8V5.99368C26.0001 5.99824 26.0001 6.00279 26 6.00735V18.6C26 19.5077 25.6326 20.3745 24.9847 21.0106C24.3373 21.6462 23.4632 22 22.5556 22H3.44447C2.5368 22 1.6627 21.6462 1.01539 21.0106C0.367462 20.3745 2.29776e-05 19.5077 2.29776e-05 18.6V6.00732C-7.6592e-06 6.00278 -7.6592e-06 5.99825 2.29776e-05 5.99372V5.8C2.29776e-05 5.58061 0.0721721 5.3673 0.205352 5.19296L3.87202 0.39296ZM1.76197 5.35236C1.76155 5.35187 1.76141 5.35171 1.76197 5.35236L1.76314 5.35374L1.76197 5.35236ZM1.76197 5.35236C1.76155 5.35187 1.76141 5.35171 1.76197 5.35236C1.76412 5.35481 1.77009 5.36159 1.77874 5.37107C1.79604 5.39005 1.82645 5.42259 1.8704 5.4668C1.95052 5.54737 2.07559 5.66665 2.24834 5.81318C2.26518 5.82745 2.28246 5.84199 2.30021 5.85678C2.69968 6.18968 3.33042 6.64874 4.22196 7.11309C5.99964 8.03897 8.84123 9 13 9C17.1588 9 20.0004 8.03897 21.7781 7.11309C22.6696 6.64874 23.3004 6.18968 23.6998 5.85678C23.7176 5.84199 23.7349 5.82745 23.7517 5.81318L20.8389 2H5.16118L2.24834 5.81318M24 8.12174C23.6302 8.36834 23.1986 8.62824 22.702 8.88691C20.6396 9.96103 17.4812 11 13 11C8.51882 11 5.3604 9.96103 3.29809 8.88691C2.80143 8.62824 2.36989 8.36834 2.00002 8.12174V18.6C2.00002 18.9653 2.14766 19.3195 2.41657 19.5835C2.68611 19.8481 3.05552 20 3.44447 20H22.5556C22.9445 20 23.3139 19.8481 23.5835 19.5835C23.8524 19.3195 24 18.9653 24 18.6V8.12174ZM9.00002 12C9.55231 12 10 12.4477 10 13C10 13.7956 10.3161 14.5587 10.8787 15.1213C11.4413 15.6839 12.2044 16 13 16C13.7957 16 14.5587 15.6839 15.1213 15.1213C15.684 14.5587 16 13.7956 16 13C16 12.4477 16.4477 12 17 12C17.5523 12 18 12.4477 18 13C18 14.3261 17.4732 15.5979 16.5356 16.5355C15.5979 17.4732 14.3261 18 13 18C11.6739 18 10.4022 17.4732 9.46449 16.5355C8.52681 15.5979 8.00002 14.3261 8.00002 13C8.00002 12.4477 8.44774 12 9.00002 12Z" fill="#B0B3BC"/>
</svg>
