<svg width="24" height="24" viewBox="0 0 24 24" fill="none" xmlns="http://www.w3.org/2000/svg">
<path fill-rule="evenodd" clip-rule="evenodd" d="M11.8543 19C14.2261 19 16.2182 20.2817 17.1065 22.0491L18.8935 21.1509C17.6461 18.6692 14.9377 17 11.8543 17C9.02433 17 6.51466 18.4047 5.15524 20.5506L6.84476 21.6209C7.82249 20.0775 9.68113 19 11.8543 19Z" fill="#B0B3BC"/>
<path fill-rule="evenodd" clip-rule="evenodd" d="M12 22C6.47715 22 2 17.5228 2 12C2 6.47715 6.47715 2 12 2C17.5228 2 22 6.47715 22 12C22 17.5228 17.5228 22 12 22ZM12 24C18.6274 24 24 18.6274 24 12C24 5.37258 18.6274 0 12 0C5.37258 0 0 5.37258 0 12C0 18.6274 5.37258 24 12 24Z" fill="#B0B3BC"/>
<path fill-rule="evenodd" clip-rule="evenodd" d="M12 13.6C10.4536 13.6 9.2 12.3464 9.2 10.8C9.2 9.2536 10.4536 8 12 8C13.5464 8 14.8 9.2536 14.8 10.8C14.8 12.3464 13.5464 13.6 12 13.6ZM12 15.6C14.651 15.6 16.8 13.451 16.8 10.8C16.8 8.14903 14.651 6 12 6C9.34903 6 7.2 8.14903 7.2 10.8C7.2 13.451 9.34903 15.6 12 15.6Z" fill="#B0B3BC"/>
</svg>
